<?xml version="1.0" standalone="no"?><!DOCTYPE svg PUBLIC "-//W3C//DTD SVG 1.1//EN" "http://www.w3.org/Graphics/SVG/1.1/DTD/svg11.dtd"><svg t="1646638625702" class="icon" viewBox="0 0 1024 1024" version="1.1" xmlns="http://www.w3.org/2000/svg" p-id="3158" xmlns:xlink="http://www.w3.org/1999/xlink" width="200" height="200"><defs><style type="text/css"></style></defs><path d="M512 192m-99.84 0a99.84 99.84 0 1 0 199.68 0 99.84 99.84 0 1 0-199.68 0Z" fill="#F29BF9" p-id="3159"></path><path d="M512 61.44a130.56 130.56 0 1 0 130.56 130.56A130.7136 130.7136 0 0 0 512 61.44z m0 230.4a99.84 99.84 0 1 1 99.84-99.84A99.9936 99.9936 0 0 1 512 291.84z" p-id="3160"></path><path d="M394.24 734.3104v161.9968c0 19.4048 14.4384 35.2256 32.1536 35.2256s32.1024-15.8208 32.1024-35.2256v-168.96c-9.6768 0.7168-19.3024 1.5872-28.928 2.7648zM565.7088 727.3472v168.96c0 19.4048 14.4384 35.2256 32.1536 35.2256s32.1024-15.8208 32.1024-35.2256v-161.9968l-35.2768-4.1984c-9.6256-1.1776-19.3024-2.048-28.9792-2.7648zM695.1936 484.9664l66.048 72.2944a18.6368 18.6368 0 0 0 16.384 5.12 37.7856 37.7856 0 0 0 22.3744-12.544 44.7488 44.7488 0 0 0 11.4688-24.4736 23.6032 23.6032 0 0 0-4.7616-17.9712l-118.1696-129.2288 3.8912 58.4704q1.5872 24.1664 2.7648 48.3328zM335.8208 377.7024L217.2416 507.4944c-8.704 9.5232-5.632 28.9792 6.7072 42.4448s30.0544 16.8448 38.7072 7.3216l66.56-72.704q1.1776-24.0128 2.7136-47.9232z" fill="#FF00FF" p-id="3161"></path><path d="M667.648 498.2784c-0.3072-7.68-0.6656-15.36-1.0752-22.9376s-0.8704-15.36-1.3312-23.1936c-0.3072-4.4032-0.512-8.8576-0.8192-13.312L660.48 379.7504l-0.8704-13.2608c-32.9216 65.9968-118.784 218.5728-257.024 331.1104l-6.9632 5.632 30.72-3.6864c6.2976-0.7168 12.5952-1.3824 18.8928-1.9456q33.28-3.072 66.56-3.1232t66.56 3.1232c6.2976 0.5632 12.5952 1.2288 18.8416 1.9456l32.256 3.84 14.0288 1.6896 14.0288 1.6384 12.3392 1.4848v-92.7232c0.512-38.912-0.4608-77.8752-2.2016-117.1968zM366.2336 343.04v0.6144l0.3072 0.3584-0.4096 0.4608-2.6112 37.0688-3.84 57.344c0 4.2496-0.4608 8.5504-0.768 12.8-0.4608 7.7312-0.9216 15.36-1.3312 23.2448s-0.768 15.36-1.0752 22.8864c-1.7408 39.2192-2.7136 78.592-2.7136 117.76v81.92c7.4752-5.4272 14.848-10.9568 22.0672-16.6912 121.344-95.5904 203.8784-226.9696 244.4288-301.6192 7.7824-14.336 14.0288-26.5728 18.688-35.84z" fill="#F29BF9" p-id="3162"></path><path d="M826.5216 485.7856l-142.08-155.5968a24.1664 24.1664 0 0 0-22.3232-17.8688H362.1888a24.064 24.064 0 0 0-22.1184 17.2544L197.376 485.7856c-19.7632 21.6576-16.7424 60.16 6.7072 85.8624a62.5664 62.5664 0 0 0 45.3632 21.6576 44.0832 44.0832 0 0 0 33.0752-14.336l44.7488-48.9984q-1.3824 42.8544-1.3824 85.504v101.0176a24.2176 24.2176 0 0 0 6.912 17.3056 20.1728 20.1728 0 0 0 14.1824 5.9392h2.304l16.7936-1.9968v158.72c0 36.352 26.9824 65.9456 60.2112 65.9456S486.4 932.6592 486.4 896.3072v-170.5984c16.9984-0.6144 34.048-0.6144 51.2 0v170.5984c0 36.352 27.0336 65.9456 60.2112 65.9456s60.16-29.5936 60.16-65.9456v-158.72l16.7936 1.9968a20.48 20.48 0 0 0 16.4864-5.8368 24.4224 24.4224 0 0 0 7.0656-17.3056v-100.9664c0-28.2624-0.512-56.6784-1.3824-85.0944l44.3392 48.5888a44.0832 44.0832 0 0 0 33.1264 14.336 62.5152 62.5152 0 0 0 45.312-21.6576 75.5712 75.5712 0 0 0 19.5072-42.7008 55.0912 55.0912 0 0 0-12.6976-43.1616z m-494.6944-49.152q-1.536 23.8592-2.7136 47.9232l-66.56 72.704c-8.6528 9.5232-26.4192 6.144-38.7072-7.3216s-15.36-32.9216-6.7072-42.4448l118.6816-129.792zM376.0128 680.96c-7.2192 5.7344-14.592 11.264-22.0672 16.6912v-81.92c0-39.0656 0.9728-78.4384 2.7136-117.76q0.4608-11.4688 1.0752-22.8864c0.4096-7.7824 0.8704-15.36 1.3312-23.2448 0.3072-4.2496 0.512-8.5504 0.768-12.8L363.52 381.5424l2.4576-37.0688 0.4096-0.4608-0.3072-0.3584V343.04h272.896c-4.6592 9.472-10.9056 21.7088-18.688 35.84-40.3968 74.8544-122.9312 206.2336-244.2752 302.08z m82.5344 215.6032c0 19.4048-14.3872 35.2256-32.1024 35.2256S394.24 915.712 394.24 896.3072v-161.9968l35.328-4.1984c9.6256-1.1776 19.2512-2.048 28.928-2.7648z m171.4176 0c0 19.4048-14.3872 35.2256-32.1024 35.2256s-32.1536-15.8208-32.1536-35.2256v-168.96c9.6768 0.7168 19.3536 1.5872 28.9792 2.7648l35.2768 4.1984z m40.3968-188.1088l-12.3392-1.4848-14.0288-1.6384-14.0288-1.6896-32.256-3.84c-6.2464-0.7168-12.544-1.3824-18.8416-1.9456q-33.28-3.072-66.56-3.1232t-66.56 3.1232c-6.2976 0.5632-12.5952 1.2288-18.8928 1.9456l-30.72 3.6864 6.9632-5.632c138.24-112.64 224.1024-265.1136 257.024-331.1104l0.8704 13.2608 3.9424 59.0848c0.3072 4.4544 0.512 8.9088 0.8192 13.312 0.4608 7.7312 0.9216 15.36 1.3312 23.1936s0.768 15.36 1.0752 22.9376c1.7408 39.0656 2.7136 78.2848 2.7136 117.1968z m141.1072-182.7328a44.7488 44.7488 0 0 1-11.4688 24.4736 37.7856 37.7856 0 0 1-22.3744 12.544 18.6368 18.6368 0 0 1-16.384-5.12l-66.048-72.2944q-1.1264-24.2688-2.7648-48.3328l-3.8912-58.4704 118.1696 129.3312a23.6032 23.6032 0 0 1 4.7616 17.6128z" p-id="3163"></path></svg>